<svg width="18" height="18" viewBox="0 0 18 18" fill="none" xmlns="http://www.w3.org/2000/svg">
    <g clip-path="url(#clip0_2032_145)">
        <path
            d="M8.75806 0.0638428C8.48737 0.200943 8.44167 0.366167 8.43816 1.16768V1.75827H8.30809C7.90733 1.75827 6.93708 1.98677 6.36055 2.21527C5.33405 2.62658 4.52902 3.16443 3.76266 3.95892C3.19317 4.54599 2.84162 5.04166 2.48657 5.74826C2.07175 6.58141 1.92059 7.11576 1.73779 8.35669L1.72021 8.4727H1.04173C0.394898 8.4727 0.356229 8.47622 0.247251 8.55004C-0.0726514 8.77151 -0.0726514 9.22852 0.247251 9.44647C0.356229 9.52381 0.394898 9.52733 1.04173 9.52733H1.72021L1.73779 9.64333C1.92059 10.8843 2.07175 11.4186 2.48657 12.2518C2.86623 13.0076 3.30214 13.5982 3.94195 14.2204C4.84541 15.0957 5.86136 15.6828 7.06715 16.0203C7.41869 16.1152 8.10771 16.2418 8.29754 16.2418H8.43113L8.44519 16.9167C8.45574 17.5179 8.46277 17.6093 8.52604 17.7147C8.68072 17.9784 8.9725 18.0698 9.23616 17.9362C9.49278 17.8026 9.50684 17.7569 9.52794 16.9624L9.54551 16.2593L9.80917 16.2347C10.224 16.1925 10.8919 16.0414 11.3454 15.8867C13.5882 15.1168 15.3248 13.2958 15.9822 11.0284C16.0912 10.6487 16.2248 9.97027 16.2494 9.66794L16.2599 9.5449L16.963 9.52733C17.6204 9.50975 17.6731 9.50623 17.7751 9.43241C18.0669 9.225 18.0669 8.77854 17.7751 8.56059C17.6872 8.49731 17.6134 8.49028 16.9701 8.4727L16.2599 8.45513L16.2494 8.33209C16.2459 8.26529 16.2072 8.02273 16.1721 7.79774C15.7221 5.14009 13.8413 2.94296 11.2856 2.09575C10.7794 1.92701 10.238 1.80749 9.80917 1.7653L9.54551 1.74069L9.52794 1.03761C9.50684 0.246643 9.49278 0.197428 9.24319 0.067358C9.07796 -0.0170116 8.91274 -0.0170116 8.75806 0.0638428ZM10.0377 2.88672C12.4106 3.28396 14.3933 5.08385 14.9909 7.38644C15.1561 8.02976 15.1983 8.427 15.1772 9.17579C15.1561 9.94917 15.0963 10.2972 14.8714 10.9722C13.982 13.6509 11.3524 15.3981 8.53659 15.1871C7.69289 15.1203 6.98629 14.9235 6.20587 14.5333C4.98251 13.9251 3.98765 12.9092 3.39354 11.6647C2.585 9.95621 2.585 8.03679 3.39354 6.33533C3.84703 5.38969 4.56066 4.53896 5.4149 3.93079C5.79808 3.66011 6.52226 3.28396 6.9652 3.1328C7.93897 2.79883 9.00765 2.71095 10.0377 2.88672Z"
            fill="white" />
        <path
            d="M8.29787 5.46696C7.53151 5.63922 6.93389 5.96966 6.41009 6.51455C6.09019 6.85203 5.91794 7.09811 5.72811 7.5059C5.29571 8.42694 5.29571 9.57296 5.72811 10.494C5.91794 10.9018 6.09019 11.1479 6.41009 11.4853C6.86358 11.9599 7.37332 12.2693 8.03421 12.4661C8.32599 12.5575 8.3963 12.5646 8.98338 12.5646C9.52475 12.5646 9.65482 12.554 9.88684 12.4908C10.5512 12.3044 11.0575 12.0091 11.5356 11.5346C12.0031 11.0635 12.2949 10.5643 12.4742 9.92099C12.5585 9.61515 12.5691 9.52374 12.5691 8.99995C12.5691 8.47615 12.5585 8.38827 12.4707 8.07188C12.1191 6.80633 11.1629 5.85717 9.88684 5.51266C9.52826 5.41775 8.63535 5.38962 8.29787 5.46696Z"
            fill="white" />
    </g>
    <defs>
        <clipPath id="clip0_2032_145">
            <rect width="17.9989" height="17.9989" fill="white"
                transform="translate(0.000976562 0.000610352)" />
        </clipPath>
    </defs>
</svg>
    