<svg width="32" height="32" viewBox="0 0 32 32" fill="none"
    xmlns="http://www.w3.org/2000/svg">
    <path d="M15.1734 7.05292C13.6792 7.24628 12.3011 7.92128 11.2324 8.983C10.1531 10.0588 9.48509 11.4439 9.30228 12.9767C9.20736 13.7818 9.25306 14.499 9.45697 15.3498C10.0581 17.8389 12.0163 20.9326 14.987 24.0861C15.7535 24.8982 15.866 25.0002 16.0031 25.0002C16.1367 25.0002 16.3441 24.8068 17.1597 23.9279C20.4328 20.3982 22.3593 17.1217 22.6968 14.5131C22.9535 12.5267 22.2257 10.449 20.7632 8.983C19.7578 7.97753 18.5238 7.3412 17.0718 7.08807C16.6253 7.00722 15.6515 6.98964 15.1734 7.05292ZM16.7554 10.7549C17.898 11.0678 18.7031 11.8799 19.0089 13.033C19.1038 13.3951 19.1003 14.1299 18.9984 14.506C18.791 15.2689 18.3269 15.9228 17.7011 16.3271C15.6972 17.6244 13.071 16.306 12.9163 13.9295C12.8601 13.0576 13.187 12.2068 13.8199 11.5705C14.2839 11.1099 14.8113 10.8287 15.4546 10.7057C15.7851 10.6424 16.432 10.667 16.7554 10.7549Z" fill="black"/>
    <path d="M19.9993 13.0002C19.9993 15.2093 18.2084 17.0002 15.9993 17.0002C13.7901 17.0002 11.9993 15.2093 11.9993 13.0002C11.9993 10.791 13.7901 9.00018 15.9993 9.00018C18.2084 9.00018 19.9993 10.791 19.9993 13.0002Z" fill="black"/>
    <rect x="15" y="10" width="2" height="8" rx="1" fill="white"/>
    <circle cx="16" cy="20" r="1" fill="white"/>
</svg>