<svg width="20" height="20" viewBox="0 0 20 20" fill="none" xmlns="http://www.w3.org/2000/svg">
    <path
        d="M16.0898 18.0624C16.75 17.8867 17.2656 17.3593 17.4414 16.6913C17.5313 16.3554 17.5313 3.64447 17.4414 3.30853C17.2656 2.63275 16.7461 2.10931 16.0742 1.93353C15.875 1.88275 15.3359 1.87494 12.1094 1.87494C8.01172 1.87494 8.15234 1.86712 7.69922 2.11322C7.44531 2.24603 3.14453 5.95697 2.92187 6.23431C2.74219 6.45306 2.60156 6.74994 2.54297 7.02337C2.51172 7.1679 2.5 8.6015 2.5 11.8476C2.5 15.8163 2.50781 16.4999 2.55859 16.6913C2.73437 17.3671 3.2539 17.8906 3.92578 18.0663C4.26562 18.1523 15.7617 18.1523 16.0898 18.0624ZM4.03906 16.7734C3.98047 16.7304 3.89453 16.6445 3.85156 16.5859C3.76953 16.4804 3.76953 16.4531 3.75781 12.3007L3.75 8.12494H5.73437C7.91406 8.12494 7.96094 8.12103 8.40234 7.88665C8.67578 7.73822 9.01562 7.39447 9.15625 7.11712C9.36719 6.70306 9.375 6.6054 9.375 4.79681V3.12494L12.6133 3.13275C15.8164 3.14447 15.8555 3.14447 15.9609 3.2265C16.0195 3.26947 16.1055 3.35541 16.1484 3.414C16.2305 3.51947 16.2305 3.52728 16.2422 9.89447C16.2461 13.4023 16.2422 16.3242 16.2305 16.3945C16.2031 16.5507 16.0391 16.7499 15.8789 16.8202C15.7812 16.8632 14.7227 16.871 9.95312 16.8632C4.15625 16.8554 4.14453 16.8554 4.03906 16.7734ZM4.12109 6.80072C4.28906 6.64447 8.08984 3.35931 8.10547 3.35931C8.14844 3.35931 8.125 6.36322 8.08203 6.47259C8.05859 6.53119 8.00391 6.62494 7.95703 6.67572C7.77734 6.87103 7.76172 6.87103 5.83984 6.87494C4.07812 6.87494 4.04687 6.87494 4.12109 6.80072Z"
        fill="white" />
    <path
        d="M14.0039 14.9453C14.2656 14.832 14.414 14.5312 14.3593 14.2382C14.3242 14.0546 14.1289 13.8398 13.9531 13.789C13.8554 13.7578 12.5742 13.7499 9.91402 13.7578C6.05074 13.7695 6.01949 13.7695 5.91402 13.8515C5.70699 14.0039 5.64449 14.1289 5.64449 14.3749C5.64449 14.621 5.70699 14.746 5.91402 14.8984C6.01949 14.9804 6.05074 14.9804 9.95308 14.9882C13.164 14.996 13.9101 14.9882 14.0039 14.9453Z"
        fill="white" />
    <path
        d="M14.0039 11.9765C14.2656 11.8632 14.414 11.5624 14.3593 11.2695C14.3242 11.0859 14.1289 10.871 13.9531 10.8203C13.8554 10.789 12.5742 10.7812 9.91402 10.789C6.05074 10.8007 6.01949 10.8007 5.91402 10.8828C5.70699 11.0351 5.64449 11.1601 5.64449 11.4062C5.64449 11.6523 5.70699 11.7773 5.91402 11.9296C6.01949 12.0117 6.05074 12.0117 9.95308 12.0195C13.164 12.0273 13.9101 12.0195 14.0039 11.9765Z"
        fill="white" />
</svg>
    