<svg width="18" height="18" viewBox="0 0 18 18" fill="none" xmlns="http://www.w3.org/2000/svg">
    <path
        d="M0.274219 0.0738277C0.193359 0.116016 0.1125 0.196875 0.0703125 0.28125C0 0.41836 0 0.471094 0 9C0 17.5324 0 17.5816 0.0703125 17.7188C0.116016 17.8102 0.189844 17.884 0.28125 17.9297C0.418359 18 0.467578 18 9 18C17.5324 18 17.5816 18 17.7188 17.9297C17.8102 17.884 17.884 17.8102 17.9297 17.7188C18 17.5852 18 17.5184 18 14.9238C18 12.3293 18 12.2625 17.9297 12.1289C17.884 12.0375 17.8102 11.9637 17.7188 11.918C17.5816 11.8477 17.5254 11.8477 11.8652 11.8477H6.15234V6.13477C6.15234 0.474609 6.15234 0.41836 6.08203 0.28125C6.03633 0.189844 5.9625 0.116016 5.87109 0.0703125C5.7375 0 5.6707 0 3.06914 0C0.485156 0.00351524 0.400781 0.00351524 0.274219 0.0738277ZM5.09766 1.81055V2.56641H4.46484C3.89883 2.56641 3.81445 2.57344 3.69141 2.63672C3.5332 2.71758 3.41016 2.91797 3.41016 3.09375C3.41016 3.26953 3.5332 3.46992 3.69141 3.55078C3.81445 3.61406 3.89883 3.62109 4.46484 3.62109H5.09766V4.21875V4.81641H4.74609C4.31367 4.81641 4.15195 4.87969 4.04297 5.09766C3.95508 5.27344 3.95508 5.41406 4.04297 5.58984C4.15195 5.80781 4.31367 5.87109 4.74609 5.87109H5.09766V6.46875V7.06641H4.46484C3.72656 7.06641 3.60703 7.10156 3.48047 7.34766C3.39258 7.52344 3.39258 7.66406 3.48047 7.83984C3.60703 8.08594 3.72656 8.12109 4.46484 8.12109H5.09766V8.71875V9.31641H4.74609C4.31367 9.31641 4.15195 9.37969 4.04297 9.59766C3.95508 9.77344 3.95508 9.91406 4.04297 10.0898C4.15195 10.3078 4.31367 10.3711 4.74609 10.3711H5.09766V11.1094V11.8477H3.07617H1.05469V6.45117V1.05469H3.07617H5.09766V1.81055ZM5.09766 14.9238V16.9453H3.07617H1.05469V14.9238V12.9023H3.07617H5.09766V14.9238ZM7.62891 13.5352C7.62891 14.2734 7.66406 14.393 7.91016 14.5195C8.08594 14.6074 8.22656 14.6074 8.40234 14.5195C8.64844 14.393 8.68359 14.2734 8.68359 13.5352V12.9023H9.28125H9.87891V13.2539C9.87891 13.6863 9.94219 13.848 10.1602 13.957C10.3359 14.0449 10.4766 14.0449 10.6523 13.957C10.8703 13.848 10.9336 13.6863 10.9336 13.2539V12.9023H11.5312H12.1289V13.5352C12.1289 14.2734 12.1641 14.393 12.4102 14.5195C12.5859 14.6074 12.7266 14.6074 12.9023 14.5195C13.1484 14.393 13.1836 14.2734 13.1836 13.5352V12.9023H13.7812H14.3789V13.2539C14.3789 13.6863 14.4422 13.848 14.6602 13.957C14.8359 14.0449 14.9766 14.0449 15.1523 13.957C15.3703 13.848 15.4336 13.6863 15.4336 13.2539V12.9023H16.1895H16.9453V14.9238V16.9453H11.5488H6.15234V14.9238V12.9023H6.89062H7.62891V13.5352Z"
        fill="white" />
    <path
        d="M2.84062 14.4527C2.68945 14.5301 2.56641 14.7375 2.56641 14.9062C2.56641 15.1734 2.82656 15.4336 3.09375 15.4336C3.26953 15.4336 3.46992 15.3105 3.55078 15.1523C3.64219 14.973 3.63867 14.8184 3.54023 14.6461C3.39609 14.393 3.10078 14.3121 2.84062 14.4527Z"
        fill="white" />
</svg>
    