<svg width="18" height="18" viewBox="0 0 18 18" fill="none" xmlns="http://www.w3.org/2000/svg">
    <g clip-path="url(#clip0_2032_179)">
        <path
            d="M1.58906 0.0703125C1.20586 0.172266 0.931641 0.330469 0.632812 0.632812C0.326953 0.935156 0.172266 1.20586 0.0703125 1.60312C0 1.87031 0 2.01797 0 9C0 15.982 0 16.1297 0.0703125 16.3969C0.172266 16.7941 0.326953 17.0648 0.632812 17.3672C0.935156 17.673 1.20586 17.8277 1.60312 17.9297C1.87031 18 2.01797 18 9 18C15.982 18 16.1297 18 16.3969 17.9297C16.7941 17.8277 17.0648 17.673 17.3672 17.3672C17.673 17.0648 17.8277 16.7941 17.9297 16.3969C18 16.1297 18 15.982 18 9.67148V3.2168L16.3898 1.60664L14.7832 0L8.31445 0.00351524C2.06016 0.00351524 1.83867 0.00703239 1.58906 0.0703125ZM4.11328 3.20977C4.11328 4.89375 4.1168 5.03438 4.18359 5.2875C4.28555 5.68477 4.44023 5.95547 4.74609 6.25781C5.04844 6.56367 5.31914 6.71836 5.71641 6.82031C5.97656 6.88711 6.11719 6.89062 9.01758 6.89062C11.918 6.89062 12.0586 6.88711 12.3187 6.82031C12.716 6.71836 12.9867 6.56367 13.2891 6.25781C13.5949 5.95547 13.7496 5.68477 13.8516 5.2875C13.9184 5.03438 13.9219 4.89375 13.9219 3.20977V1.40625H14.0555C14.182 1.40625 14.2348 1.45547 15.3914 2.61211L16.5938 3.81445L16.5867 9.9668L16.5762 16.1191L16.4918 16.2527C16.4461 16.3266 16.3441 16.4285 16.2668 16.4813C16.1367 16.5691 16.0875 16.5762 15.7254 16.5902L15.3281 16.6008V13.3875C15.3281 10.3008 15.3246 10.1602 15.2578 9.9C15.1559 9.50273 15.0012 9.23203 14.6953 8.92969C14.393 8.62383 14.1223 8.46914 13.725 8.36719C13.4613 8.30039 13.3207 8.29688 9.01758 8.29688C4.71445 8.29688 4.57383 8.30039 4.31016 8.36719C3.91289 8.46914 3.64219 8.62383 3.33984 8.92969C3.03398 9.23203 2.8793 9.50273 2.77734 9.9C2.71055 10.1602 2.70703 10.3008 2.70703 13.3875V16.6008L2.29219 16.5902C1.90898 16.5762 1.86328 16.5691 1.7332 16.4813C1.65586 16.4285 1.55391 16.3266 1.5082 16.2527L1.42383 16.1191L1.41328 9.07383C1.40977 4.18711 1.4168 1.98984 1.44141 1.89141C1.48711 1.72266 1.71211 1.49063 1.87031 1.44492C1.93359 1.42734 2.46445 1.40977 3.05156 1.40977L4.11328 1.40625V3.20977ZM9.70312 2.74219V4.07812H10.4062H11.1094V2.74219V1.40625H11.8125H12.5191L12.5086 3.20977L12.498 5.01328L12.4031 5.15742C12.3504 5.23477 12.2484 5.33672 12.1746 5.38242L12.041 5.4668H9.01406H5.99062L5.84648 5.37188C5.76914 5.31914 5.66719 5.21719 5.62148 5.14336L5.53711 5.00977L5.52656 3.20625L5.51602 1.40625H7.61133H9.70312V2.74219ZM13.5809 9.80508C13.6547 9.85078 13.7566 9.95273 13.8094 10.0301L13.9043 10.1742L13.9148 13.384L13.9219 16.5938H9.01758H4.11328V13.4543C4.11328 11.3555 4.12734 10.2727 4.15195 10.1848C4.19766 10.0195 4.41914 9.7875 4.57734 9.7418C4.64766 9.7207 6.37031 9.71016 9.07031 9.71367L13.4473 9.7207L13.5809 9.80508Z"
            fill="white" />
    </g>
    <defs>
        <clipPath id="clip0_2032_179">
            <rect width="18" height="18" fill="white" />
        </clipPath>
    </defs>
</svg>
    