<svg width="18" height="18" viewBox="0 0 18 18" fill="none" xmlns="http://www.w3.org/2000/svg">
    <path
        d="M15.9769 0.702294C16.0324 0.748858 16.0879 0.795534 16.1432 0.842358C16.1743 0.865784 16.1743 0.865784 16.206 0.889684C16.8002 1.34983 17.1493 2.12521 17.2849 2.84593C17.3886 3.83965 17.2011 4.77759 16.5695 5.57127C15.9724 6.28865 15.1783 6.71162 14.2502 6.81696C13.3368 6.89461 12.4392 6.6259 11.7287 6.04374C11.5817 5.91609 11.4448 5.78088 11.311 5.63955C11.2873 5.65248 11.2637 5.66541 11.2393 5.67874C11.0761 5.76782 10.9129 5.85673 10.7492 5.94485C10.3758 6.14643 10.0073 6.3548 9.64151 6.56999C9.33581 6.7493 9.02652 6.92168 8.71633 7.09307C8.40459 7.26544 8.09478 7.44098 7.78587 7.61837C7.76016 7.6331 7.73446 7.64783 7.70797 7.66301C7.65926 7.69111 7.6107 7.71948 7.5623 7.74812C7.39653 7.84556 7.39653 7.84556 7.31917 7.84556C7.32888 7.8874 7.33858 7.92924 7.34858 7.97236C7.3614 8.02857 7.37421 8.08479 7.38701 8.14101C7.3934 8.16843 7.39979 8.19585 7.40637 8.2241C7.55479 8.87986 7.48859 9.51135 7.31917 10.1566C7.34725 10.1645 7.37532 10.1723 7.40425 10.1804C7.56348 10.2393 7.70258 10.3205 7.84879 10.4061C7.91471 10.4442 7.98064 10.4823 8.04657 10.5205C8.09937 10.5511 8.09937 10.5511 8.15323 10.5823C8.35041 10.6965 8.54825 10.8095 8.74607 10.9226C8.76675 10.9344 8.78742 10.9462 8.80872 10.9584C9.14019 11.148 9.47292 11.3352 9.80632 11.5214C10.2991 11.7968 10.7894 12.0765 11.276 12.3626C11.4403 12.2235 11.4403 12.2235 11.5993 12.0783C12.2785 11.4379 13.1565 11.1563 14.0773 11.1721C14.8177 11.2018 15.5552 11.4829 16.1082 11.9774C16.1372 12.0015 16.1662 12.0256 16.1961 12.0504C16.8064 12.569 17.1834 13.3259 17.2987 14.1134C17.3565 15.128 17.1696 16.021 16.4934 16.8097C16.4778 16.8303 16.4622 16.8509 16.4462 16.8722C15.9701 17.488 15.1452 17.8555 14.3924 17.9652C13.9146 17.9914 13.4159 18.0096 12.9567 17.8601C12.9237 17.8497 12.9237 17.8497 12.89 17.8391C11.9773 17.5452 11.266 16.908 10.8294 16.0601C10.642 15.6506 10.5238 15.1948 10.5056 14.7437C10.5042 14.7172 10.5028 14.6906 10.5014 14.6633C10.4903 14.2625 10.5618 13.8646 10.6807 13.4831C10.3444 13.2823 10.0053 13.0872 9.66305 12.8966C9.37147 12.7343 9.08192 12.569 8.79422 12.3998C8.4545 12.2002 8.1114 12.0074 7.76618 11.8174C7.58309 11.7165 7.40103 11.6145 7.22151 11.5073C7.19081 11.4891 7.1601 11.4708 7.12847 11.452C7.07197 11.4181 7.01569 11.3839 6.95967 11.3493C6.93499 11.3345 6.91031 11.3197 6.88489 11.3045C6.86377 11.2915 6.84265 11.2785 6.82089 11.2652C6.73953 11.2349 6.6987 11.2454 6.61885 11.2771C6.57049 11.3341 6.52396 11.3927 6.47879 11.4522C5.76375 12.1266 4.86387 12.4322 3.88979 12.4078C2.96808 12.3666 2.16042 11.9308 1.52881 11.2789C0.833685 10.5017 0.657114 9.55846 0.701146 8.54588C0.715947 8.37625 0.754081 8.21772 0.806194 8.05566C0.812965 8.03396 0.819736 8.01227 0.826711 7.98991C1.09852 7.13696 1.67012 6.43393 2.45195 5.98971C3.32262 5.56286 4.29494 5.46543 5.21965 5.77608C5.75672 5.96892 6.31004 6.29767 6.65387 6.76006C6.79954 6.73925 6.90304 6.69019 7.02974 6.61631C7.06891 6.59366 7.10808 6.57102 7.14843 6.54769C7.19076 6.52292 7.23308 6.49814 7.2754 6.47337C7.34181 6.43486 7.40828 6.39644 7.47475 6.35804C7.52003 6.33187 7.56529 6.30568 7.61054 6.27946C7.82433 6.1557 8.03993 6.0353 8.25585 5.9153C8.57403 5.73803 8.88911 5.55601 9.20308 5.37139C9.51865 5.18655 9.83809 5.00908 10.1587 4.83323C10.3377 4.73473 10.5137 4.63684 10.6807 4.51904C10.6662 4.46447 10.6662 4.46447 10.6513 4.40879C10.5817 4.14288 10.5166 3.88455 10.5056 3.60862C10.5042 3.58244 10.5028 3.55626 10.5014 3.52929C10.4736 2.54275 10.8704 1.6616 11.5386 0.951783C11.6941 0.804431 11.8696 0.682581 12.0463 0.56223C12.0737 0.543407 12.101 0.524585 12.1292 0.505192C12.3868 0.339107 12.6667 0.236206 12.9567 0.142038C13.0121 0.12396 13.0121 0.12396 13.0685 0.105517C14.0455 -0.154923 15.1862 0.0752262 15.9769 0.702294ZM12.3265 1.92785C12.3039 1.95011 12.2814 1.97236 12.2582 1.99529C11.8946 2.37624 11.7291 2.92123 11.7159 3.44011C11.7376 4.04025 11.9728 4.58157 12.3965 5.00926C12.8619 5.41737 13.4034 5.6348 14.0277 5.61657C14.6153 5.55741 15.0961 5.32561 15.5129 4.90421C15.5322 4.88611 15.5515 4.86801 15.5713 4.84937C15.7042 4.71292 15.7861 4.5494 15.8718 4.38116C15.8838 4.35776 15.8958 4.33435 15.9081 4.31023C16.1462 3.82379 16.1586 3.27112 16.003 2.75716C15.7999 2.18955 15.4527 1.75681 14.9176 1.47265C14.014 1.05256 13.0186 1.20233 12.3265 1.92785ZM2.48696 7.4954C2.05722 7.99799 1.85732 8.56307 1.89921 9.225C1.95426 9.65852 2.11225 10.0249 2.38191 10.3667C2.39803 10.3886 2.41414 10.4104 2.43075 10.4329C2.74314 10.8326 3.25193 11.0933 3.74754 11.1721C3.85648 11.1817 3.9643 11.1838 4.07362 11.183C4.10267 11.1828 4.13172 11.1826 4.16165 11.1824C4.79627 11.17 5.30906 10.8849 5.74783 10.4367C6.11404 10.0059 6.29569 9.44578 6.28073 8.88455C6.2228 8.26583 5.96136 7.7367 5.49834 7.32032C4.59502 6.58347 3.30825 6.6806 2.48696 7.4954ZM12.2385 13.1631C11.8595 13.6467 11.6728 14.1964 11.7312 14.8137C11.8312 15.4557 12.1245 15.9351 12.6197 16.3501C13.1214 16.7141 13.7153 16.8359 14.3224 16.7396C14.9299 16.6058 15.4365 16.2662 15.7769 15.743C16.0825 15.2119 16.1851 14.6463 16.0382 14.0434C15.8574 13.4463 15.513 12.9688 14.9643 12.6649C14.039 12.1795 12.9326 12.373 12.2385 13.1631Z"
        fill="white" />
</svg>
    